<svg xmlns="http://www.w3.org/2000/svg" width="334.99658203125" height="343.93060302734375" viewBox="-120.99193572998047 -121.9253158569336 334.99658203125 343.93060302734375"><title>Neo4j Graph Visualization</title><desc>Created using Neo4j (http://www.neo4j.com/)</desc><g class="layer relationships"><g class="relationship" transform="translate(42.43949977265733 193.00528399332737) rotate(269.3719421642993)"><path class="b-outline" fill="#A5ABB6" stroke="none" d="M 25 0.5 L 46.24337333844211 0.5 L 46.24337333844211 -0.5 L 25 -0.5 Z M 91.80587333844211 0.5 L 113.04924667688422 0.5 L 113.04924667688422 3.5 L 120.04924667688422 0 L 113.04924667688422 -3.5 L 113.04924667688422 -0.5 L 91.80587333844211 -0.5 Z"/><text text-anchor="middle" pointer-events="none" font-size="8px" fill="#000000" x="69.02462333844211" y="3" transform="rotate(180 69.02462333844211 0)" font-family="Helvetica Neue, Helvetica, Arial, sans-serif">ACTED_IN</text></g><g class="relationship" transform="translate(185.00463746450802 64.90602261994202) rotate(186.7027208035703)"><path class="b-outline" fill="#A5ABB6" stroke="none" d="M 25 0.5 L 46.292326985034066 0.5 L 46.292326985034066 -0.5 L 25 -0.5 Z M 91.85482698503407 0.5 L 113.14715397006813 0.5 L 113.14715397006813 3.5 L 120.14715397006813 0 L 113.14715397006813 -3.5 L 113.14715397006813 -0.5 L 91.85482698503407 -0.5 Z"/><text text-anchor="middle" pointer-events="none" font-size="8px" fill="#000000" x="69.07357698503407" y="3" transform="rotate(180 69.07357698503407 0)" font-family="Helvetica Neue, Helvetica, Arial, sans-serif">ACTED_IN</text></g><g class="relationship" transform="translate(120.73349953354561 -74.79249954668352) rotate(483.053957573422)"><path class="b-outline" fill="#A5ABB6" stroke="none" d="M 25 0.5 L 46.28512574485012 0.5 L 46.28512574485012 -0.5 L 25 -0.5 Z M 93.17575074485012 0.5 L 114.46087648970024 0.5 L 114.46087648970024 3.5 L 121.46087648970024 0 L 114.46087648970024 -3.5 L 114.46087648970024 -0.5 L 93.17575074485012 -0.5 Z"/><text text-anchor="middle" pointer-events="none" font-size="8px" fill="#000000" x="69.73043824485012" y="3" transform="rotate(180 69.73043824485012 0)" font-family="Helvetica Neue, Helvetica, Arial, sans-serif">DIRECTED</text></g><g class="relationship" transform="translate(-0.1752869226583853 -92.92531934239248) rotate(433.7653223064737)"><path class="b-outline" fill="#A5ABB6" stroke="none" d="M 25 0.5 L 51.98399959142181 0.5 L 51.98399959142181 -0.5 L 25 -0.5 Z M 87.7574370914218 0.5 L 114.74143668284361 0.5 L 114.74143668284361 3.5 L 121.74143668284361 0 L 114.74143668284361 -3.5 L 114.74143668284361 -0.5 L 87.7574370914218 -0.5 Z"/><text text-anchor="middle" pointer-events="none" font-size="8px" fill="#000000" x="69.8707183414218" y="3" font-family="Helvetica Neue, Helvetica, Arial, sans-serif">WROTE</text></g><g class="relationship" transform="translate(-91.8114927559727 -14.663177043648734) rotate(385.27151959134545)"><path class="b-outline" fill="#A5ABB6" stroke="none" d="M 25 0.5 L 51.96382547049596 0.5 L 51.96382547049596 -0.5 L 25 -0.5 Z M 87.73726297049596 0.5 L 114.70108844099192 0.5 L 114.70108844099192 3.5 L 121.70108844099192 0 L 114.70108844099192 -3.5 L 114.70108844099192 -0.5 L 87.73726297049596 -0.5 Z"/><text text-anchor="middle" pointer-events="none" font-size="8px" fill="#000000" x="69.85054422049596" y="3" font-family="Helvetica Neue, Helvetica, Arial, sans-serif">WROTE</text></g><g class="relationship" transform="translate(-91.9919343703064 109.3487108421994) rotate(335.1990842068053)"><path class="b-outline" fill="#A5ABB6" stroke="none" d="M 25 0.5 L 51.78234924105669 0.5 L 51.78234924105669 -0.5 L 25 -0.5 Z M 87.55578674105669 0.5 L 114.33813598211339 0.5 L 114.33813598211339 3.5 L 121.33813598211339 0 L 114.33813598211339 -3.5 L 114.33813598211339 -0.5 L 87.55578674105669 -0.5 Z"/><text text-anchor="middle" pointer-events="none" font-size="8px" fill="#000000" x="69.66906799105669" y="3" font-family="Helvetica Neue, Helvetica, Arial, sans-serif">WROTE</text></g></g><g class="layer nodes"><g class="node" aria-label="graph-node186" transform="translate(42.43949977265733,193.00528399332737)"><circle class="b-outline" cx="0" cy="0" r="25" fill="#C990C0" stroke="#b261a5" stroke-width="2px"/><text class="caption" text-anchor="middle" pointer-events="none" x="0" y="0" font-size="10px" fill="#FFFFFF" font-family="Helvetica Neue, Helvetica, Arial, sans-serif"> Samuel L.</text><text class="caption" text-anchor="middle" pointer-events="none" x="0" y="10" font-size="10px" fill="#FFFFFF" font-family="Helvetica Neue, Helvetica, Arial, sans-serif"> Jackson</text></g><g class="node" aria-label="graph-node180" transform="translate(40.84954860466169,47.96475166937661)"><circle class="b-outline" cx="0" cy="0" r="25" fill="#F79767" stroke="#f36924" stroke-width="2px"/><text class="caption" text-anchor="middle" pointer-events="none" x="0" y="-5" font-size="10px" fill="#FFFFFF" font-family="Helvetica Neue, Helvetica, Arial, sans-serif"> Captain</text><text class="caption" text-anchor="middle" pointer-events="none" x="0" y="5" font-size="10px" fill="#FFFFFF" font-family="Helvetica Neue, Helvetica, Arial, sans-serif"> America:</text><text class="caption" text-anchor="middle" pointer-events="none" x="0" y="15" font-size="10px" fill="#FFFFFF" font-family="Helvetica Neue, Helvetica, Arial, sans-serif"> Th</text></g><g class="node" aria-label="graph-node185" transform="translate(185.00463746450802,64.90602261994202)"><circle class="b-outline" cx="0" cy="0" r="25" fill="#C990C0" stroke="#b261a5" stroke-width="2px"/><text class="caption" text-anchor="middle" pointer-events="none" x="0" y="0" font-size="10px" fill="#FFFFFF" font-family="Helvetica Neue, Helvetica, Arial, sans-serif"> Chris</text><text class="caption" text-anchor="middle" pointer-events="none" x="0" y="10" font-size="10px" fill="#FFFFFF" font-family="Helvetica Neue, Helvetica, Arial, sans-serif"> Evans</text></g><g class="node" aria-label="graph-node181" transform="translate(120.73349953354561,-74.79249954668352)"><circle class="b-outline" cx="0" cy="0" r="25" fill="#C990C0" stroke="#b261a5" stroke-width="2px"/><text class="caption" text-anchor="middle" pointer-events="none" x="0" y="0" font-size="10px" fill="#FFFFFF" font-family="Helvetica Neue, Helvetica, Arial, sans-serif"> Joe</text><text class="caption" text-anchor="middle" pointer-events="none" x="0" y="10" font-size="10px" fill="#FFFFFF" font-family="Helvetica Neue, Helvetica, Arial, sans-serif"> Johnst…</text></g><g class="node" aria-label="graph-node183" transform="translate(-0.1752869226583853,-92.92531934239248)"><circle class="b-outline" cx="0" cy="0" r="25" fill="#C990C0" stroke="#b261a5" stroke-width="2px"/><text class="caption" text-anchor="middle" pointer-events="none" x="0" y="0" font-size="10px" fill="#FFFFFF" font-family="Helvetica Neue, Helvetica, Arial, sans-serif"> Stephen</text><text class="caption" text-anchor="middle" pointer-events="none" x="0" y="10" font-size="10px" fill="#FFFFFF" font-family="Helvetica Neue, Helvetica, Arial, sans-serif"> McFe…</text></g><g class="node" aria-label="graph-node182" transform="translate(-91.8114927559727,-14.663177043648734)"><circle class="b-outline" cx="0" cy="0" r="25" fill="#C990C0" stroke="#b261a5" stroke-width="2px"/><text class="caption" text-anchor="middle" pointer-events="none" x="0" y="5" font-size="10px" fill="#FFFFFF" font-family="Helvetica Neue, Helvetica, Arial, sans-serif"> Christop…</text></g><g class="node" aria-label="graph-node184" transform="translate(-91.9919343703064,109.3487108421994)"><circle class="b-outline" cx="0" cy="0" r="25" fill="#C990C0" stroke="#b261a5" stroke-width="2px"/><text class="caption" text-anchor="middle" pointer-events="none" x="0" y="0" font-size="10px" fill="#FFFFFF" font-family="Helvetica Neue, Helvetica, Arial, sans-serif"> Joe</text><text class="caption" text-anchor="middle" pointer-events="none" x="0" y="10" font-size="10px" fill="#FFFFFF" font-family="Helvetica Neue, Helvetica, Arial, sans-serif"> Simon</text></g></g></svg>